<svg width="465" height="560" viewBox="0 0 465 560" fill="none" xmlns="http://www.w3.org/2000/svg">
<g clip-path="url(#clip0_401_2)">
<path d="M187.044 170.349C178.272 170.066 169.783 172.329 162.142 176.857C149.692 184.497 134.694 196.099 121.112 213.077C85.4573 257.787 85.7403 308.439 86.3062 323.719C86.8722 335.604 91.9656 400.687 147.145 447.66C190.157 484.164 237.696 488.125 253.259 488.691C264.578 489.257 323.719 490.389 373.522 444.831C425.306 397.575 427.852 335.321 428.135 324.568C428.701 315.513 428.984 303.628 426.721 289.763C424.74 277.312 421.344 266.842 418.231 258.636C409.742 254.108 397.575 246.751 385.69 234.583C373.239 221.849 365.882 208.833 361.637 199.778C360.788 196.099 359.373 191.006 355.978 185.629C350.318 176.574 342.961 172.046 338.999 170.066C346.357 168.934 362.486 167.802 380.03 175.725C389.368 179.97 396.16 185.629 400.687 189.874C401.536 187.61 402.951 182.799 402.102 177.14C401.253 170.349 398.14 165.538 396.443 163.557C402.102 166.387 421.91 176.857 431.814 200.344C438.322 216.19 437.756 230.339 436.908 237.13C443.699 247.6 452.188 263.163 458.13 283.254C463.79 301.93 465.205 318.626 465.205 330.793C465.771 344.659 467.751 419.929 410.025 481.051C340.697 554.341 244.77 543.871 234.583 542.456C240.526 545.851 248.166 549.247 257.221 551.794C279.859 558.019 299.384 554.624 310.419 551.794C286.367 558.585 240.808 567.357 189.308 551.511C70.7428 514.725 37.3522 382.294 35.0884 373.522C37.0692 388.519 40.1819 404.649 44.4265 421.627C50.9348 449.075 59.424 473.128 67.9131 493.785C54.3305 479.07 36.2203 455.584 21.7888 423.042C4.81051 384.841 0.848914 350.884 0 329.378C0.282971 305.892 3.9616 264.861 25.4674 220.435C56.0283 157.049 104.699 124.224 125.922 111.491C124.224 111.491 121.961 110.925 119.414 109.793C114.32 107.529 111.491 103.85 110.359 102.153C118.282 101.021 128.186 98.757 139.222 94.5124C150.258 90.2678 159.03 85.1743 165.538 80.9298C147.994 73.8555 127.903 64.8004 106.68 52.3497C86.3062 40.4649 68.762 28.0141 54.6134 16.6953L82.3446 31.6928L61.1218 13.2996C79.2319 25.4674 102.153 38.4841 129.601 49.8029C148.56 57.7261 166.387 63.3855 182.233 67.6301C173.461 62.8196 162.991 56.0283 152.521 46.6902C134.977 31.4098 123.658 14.9975 116.867 2.82971C124.224 9.33805 131.865 15.5634 139.222 22.0718L119.98 0C135.826 15.5634 158.181 34.2395 187.61 50.3689C204.305 59.4239 220.152 66.2153 234.017 71.3087C246.185 73.2895 258.07 75.2703 270.237 77.2511C273.916 77.8171 280.424 79.5149 286.65 84.6084C289.197 86.5892 291.177 88.853 292.592 90.5508C294.29 92.8146 296.554 95.3613 299.101 97.908C303.345 102.153 307.307 105.548 311.268 108.095L368.428 107.246C372.107 107.246 374.654 110.642 373.805 114.037C370.975 125.356 365.033 141.486 350.601 154.219C347.206 157.332 343.527 159.879 340.131 161.86C342.395 158.747 345.508 154.219 347.489 147.994C348.903 143.466 349.752 139.505 350.035 136.392C347.772 138.656 345.225 141.203 341.546 143.466C336.17 147.145 330.793 149.126 327.115 150.258C329.095 147.711 331.076 144.315 333.057 140.637C335.038 136.958 336.453 133.279 337.585 130.167C333.623 130.45 327.964 131.016 321.172 133.845C313.815 136.675 308.722 140.637 305.609 143.466C305.609 140.92 306.175 137.807 307.307 134.128C308.156 131.582 309.288 129.318 310.136 127.62C308.439 126.488 306.741 125.639 304.76 124.507C297.686 121.395 291.177 121.395 286.933 121.678C282.688 121.678 271.369 122.527 260.333 130.45C256.372 133.279 253.259 136.392 250.712 139.505C245.336 146.296 245.619 156.2 251.561 162.708V162.991C254.108 165.538 256.938 167.519 259.485 168.651C268.257 172.895 278.444 172.046 286.933 167.519C287.216 167.236 287.499 167.236 287.782 166.953C291.177 164.972 293.724 162.708 295.422 160.728C295.705 162.708 295.988 166.67 294.573 171.481C293.441 175.442 291.46 178.272 290.045 179.687C293.441 180.253 297.403 180.536 301.93 180.536C309.853 180.253 316.079 178.272 320.323 176.574C317.494 182.799 311.268 194.967 297.969 205.154C287.782 213.077 277.595 216.756 271.369 218.171C273.633 214.775 276.18 209.965 277.878 203.739C278.444 202.041 278.727 200.344 279.01 198.929C279.858 194.684 278.161 190.44 274.765 187.61C270.803 184.214 266.559 183.931 265.144 183.648H241.657C233.451 183.648 225.528 184.78 217.605 187.044C213.36 188.176 208.833 189.308 204.022 190.157C192.137 192.42 181.385 193.552 172.329 193.835C178.838 192.703 190.157 189.874 200.91 181.385C204.871 178.272 207.984 174.876 210.248 172.046L187.044 170.349Z" fill="#EFB13B"/>
</g>
<defs>
<clipPath id="clip0_401_2">
<rect width="464.922" height="560" fill="white"/>
</clipPath>
</defs>
</svg>
